<mxfile host="Electron" modified="2024-02-25T09:13:45.319Z" agent="Mozilla/5.0 (Windows NT 10.0; Win64; x64) AppleWebKit/537.36 (KHTML, like Gecko) draw.io/23.1.5 Chrome/120.0.6099.109 Electron/28.1.0 Safari/537.36" etag="uM3xz-TIj9e2UPli5mtB" version="23.1.5" type="device">
  <diagram name="ページ1" id="hYsqTFoL2EBxsI7E6CY6">
    <mxGraphModel dx="794" dy="557" grid="1" gridSize="10" guides="1" tooltips="1" connect="1" arrows="1" fold="1" page="1" pageScale="1" pageWidth="827" pageHeight="1169" math="1" shadow="0">
      <root>
        <mxCell id="0" />
        <mxCell id="1" parent="0" />
        <mxCell id="-UbSz86vpk3sn-XPbI4o-3" value="&lt;font style=&quot;font-size: 16px;&quot;&gt;&lt;svg style=&quot;vertical-align: -0.566ex;&quot; xmlns:xlink=&quot;http://www.w3.org/1999/xlink&quot; viewBox=&quot;0 -750 2510.6 1000&quot; role=&quot;img&quot; height=&quot;2.262ex&quot; width=&quot;5.68ex&quot; xmlns=&quot;http://www.w3.org/2000/svg&quot;&gt;&lt;defs&gt;&lt;path d=&quot;M228 637Q194 637 192 641Q191 643 191 649Q191 673 202 682Q204 683 219 683Q260 681 355 681Q389 681 418 681T463 682T483 682Q499 682 499 672Q499 670 497 658Q492 641 487 638H485Q483 638 480 638T473 638T464 637T455 637Q416 636 405 634T387 623Q384 619 355 500Q348 474 340 442T328 395L324 380Q324 378 469 378H614L615 381Q615 384 646 504Q674 619 674 627T617 637Q594 637 587 639T580 648Q580 650 582 660Q586 677 588 679T604 682Q609 682 646 681T740 680Q802 680 835 681T871 682Q888 682 888 672Q888 645 876 638H874Q872 638 869 638T862 638T853 637T844 637Q805 636 794 634T776 623Q773 618 704 340T634 58Q634 51 638 51Q646 48 692 46H723Q729 38 729 37T726 19Q722 6 716 0H701Q664 2 567 2Q533 2 504 2T458 2T437 1Q420 1 420 10Q420 15 423 24Q428 43 433 45Q437 46 448 46H454Q481 46 514 49Q520 50 522 50T528 55T534 64T540 82T547 110T558 153Q565 181 569 198Q602 330 602 331T457 332H312L279 197Q245 63 245 58Q245 51 253 49T303 46H334Q340 38 340 37T337 19Q333 6 327 0H312Q275 2 178 2Q144 2 115 2T69 2T48 1Q31 1 31 10Q31 12 34 24Q39 43 44 45Q48 46 59 46H65Q92 46 125 49Q139 52 144 61Q147 65 216 339T285 628Q285 635 228 637Z&quot; id=&quot;MJX-19-TEX-I-1D43B&quot;&gt;&lt;/path&gt;&lt;path d=&quot;M96 585Q152 666 249 666Q297 666 345 640T423 548Q460 465 460 320Q460 165 417 83Q397 41 362 16T301 -15T250 -22Q224 -22 198 -16T137 16T82 83Q39 165 39 320Q39 494 96 585ZM321 597Q291 629 250 629Q208 629 178 597Q153 571 145 525T137 333Q137 175 145 125T181 46Q209 16 250 16Q290 16 318 46Q347 76 354 130T362 333Q362 478 354 524T321 597Z&quot; id=&quot;MJX-19-TEX-N-30&quot;&gt;&lt;/path&gt;&lt;path d=&quot;M94 250Q94 319 104 381T127 488T164 576T202 643T244 695T277 729T302 750H315H319Q333 750 333 741Q333 738 316 720T275 667T226 581T184 443T167 250T184 58T225 -81T274 -167T316 -220T333 -241Q333 -250 318 -250H315H302L274 -226Q180 -141 137 -14T94 250Z&quot; id=&quot;MJX-19-TEX-N-28&quot;&gt;&lt;/path&gt;&lt;path d=&quot;M347 338Q337 338 294 349T231 360Q211 360 197 356T174 346T162 335T155 324L153 320Q150 317 138 317Q117 317 117 325Q117 330 120 339Q133 378 163 406T229 440Q241 442 246 442Q271 442 291 425T329 392T367 375Q389 375 411 408T434 441Q435 442 449 442H462Q468 436 468 434Q468 430 463 420T449 399T432 377T418 358L411 349Q368 298 275 214T160 106L148 94L163 93Q185 93 227 82T290 71Q328 71 360 90T402 140Q406 149 409 151T424 153Q443 153 443 143Q443 138 442 134Q425 72 376 31T278 -11Q252 -11 232 6T193 40T155 57Q111 57 76 -3Q70 -11 59 -11H54H41Q35 -5 35 -2Q35 13 93 84Q132 129 225 214T340 322Q352 338 347 338Z&quot; id=&quot;MJX-19-TEX-I-1D467&quot;&gt;&lt;/path&gt;&lt;path d=&quot;M60 749L64 750Q69 750 74 750H86L114 726Q208 641 251 514T294 250Q294 182 284 119T261 12T224 -76T186 -143T145 -194T113 -227T90 -246Q87 -249 86 -250H74Q66 -250 63 -250T58 -247T55 -238Q56 -237 66 -225Q221 -64 221 250T66 725Q56 737 55 738Q55 746 60 749Z&quot; id=&quot;MJX-19-TEX-N-29&quot;&gt;&lt;/path&gt;&lt;/defs&gt;&lt;g transform=&quot;scale(1,-1)&quot; stroke-width=&quot;0&quot; fill=&quot;currentColor&quot; stroke=&quot;currentColor&quot;&gt;&lt;g data-mml-node=&quot;math&quot;&gt;&lt;g data-mml-node=&quot;msub&quot;&gt;&lt;g data-mml-node=&quot;mi&quot;&gt;&lt;use xlink:href=&quot;#MJX-19-TEX-I-1D43B&quot; data-c=&quot;1D43B&quot;&gt;&lt;/use&gt;&lt;/g&gt;&lt;g data-mjx-texclass=&quot;ORD&quot; transform=&quot;translate(864,-150) scale(0.707)&quot; data-mml-node=&quot;TeXAtom&quot;&gt;&lt;g data-mml-node=&quot;mn&quot;&gt;&lt;use xlink:href=&quot;#MJX-19-TEX-N-30&quot; data-c=&quot;30&quot;&gt;&lt;/use&gt;&lt;/g&gt;&lt;/g&gt;&lt;/g&gt;&lt;g transform=&quot;translate(1267.6,0)&quot; data-mml-node=&quot;mo&quot;&gt;&lt;use xlink:href=&quot;#MJX-19-TEX-N-28&quot; data-c=&quot;28&quot;&gt;&lt;/use&gt;&lt;/g&gt;&lt;g transform=&quot;translate(1656.6,0)&quot; data-mml-node=&quot;mi&quot;&gt;&lt;use xlink:href=&quot;#MJX-19-TEX-I-1D467&quot; data-c=&quot;1D467&quot;&gt;&lt;/use&gt;&lt;/g&gt;&lt;g transform=&quot;translate(2121.6,0)&quot; data-mml-node=&quot;mo&quot;&gt;&lt;use xlink:href=&quot;#MJX-19-TEX-N-29&quot; data-c=&quot;29&quot;&gt;&lt;/use&gt;&lt;/g&gt;&lt;/g&gt;&lt;/g&gt;&lt;/svg&gt;&lt;/font&gt;" style="rounded=0;whiteSpace=wrap;html=1;" vertex="1" parent="1">
          <mxGeometry x="200" y="78" width="80" height="40" as="geometry" />
        </mxCell>
        <mxCell id="-UbSz86vpk3sn-XPbI4o-4" value="&lt;font style=&quot;font-size: 16px;&quot;&gt;$$\downarrow&lt;br&gt;M$$&lt;/font&gt;" style="rounded=0;whiteSpace=wrap;html=1;" vertex="1" parent="1">
          <mxGeometry x="320" y="78" width="40" height="40" as="geometry" />
        </mxCell>
        <mxCell id="-UbSz86vpk3sn-XPbI4o-5" value="&lt;font style=&quot;font-size: 16px;&quot;&gt;$$\downarrow&lt;br&gt;M$$&lt;/font&gt;" style="rounded=0;whiteSpace=wrap;html=1;" vertex="1" parent="1">
          <mxGeometry x="320" y="158" width="40" height="40" as="geometry" />
        </mxCell>
        <mxCell id="-UbSz86vpk3sn-XPbI4o-6" value="&lt;font style=&quot;font-size: 16px;&quot;&gt;$$\downarrow&lt;br&gt;M$$&lt;/font&gt;" style="rounded=0;whiteSpace=wrap;html=1;" vertex="1" parent="1">
          <mxGeometry x="320" y="318" width="40" height="40" as="geometry" />
        </mxCell>
        <mxCell id="-UbSz86vpk3sn-XPbI4o-7" value="&lt;font style=&quot;font-size: 16px;&quot;&gt;$$H_{1}(z)$$&lt;/font&gt;" style="rounded=0;whiteSpace=wrap;html=1;" vertex="1" parent="1">
          <mxGeometry x="200" y="158" width="80" height="40" as="geometry" />
        </mxCell>
        <mxCell id="-UbSz86vpk3sn-XPbI4o-8" value="&lt;font style=&quot;font-size: 16px;&quot;&gt;$$H_{M-1}(z)$$&lt;/font&gt;" style="rounded=0;whiteSpace=wrap;html=1;" vertex="1" parent="1">
          <mxGeometry x="200" y="318" width="80" height="40" as="geometry" />
        </mxCell>
        <mxCell id="-UbSz86vpk3sn-XPbI4o-9" value="" style="shape=waypoint;sketch=0;fillStyle=solid;size=6;pointerEvents=1;points=[];fillColor=none;resizable=0;rotatable=0;perimeter=centerPerimeter;snapToPoint=1;" vertex="1" parent="1">
          <mxGeometry x="150" y="208" width="20" height="20" as="geometry" />
        </mxCell>
        <mxCell id="-UbSz86vpk3sn-XPbI4o-10" value="" style="edgeStyle=segmentEdgeStyle;endArrow=classic;html=1;curved=0;rounded=0;endSize=8;startSize=8;entryX=0;entryY=0.5;entryDx=0;entryDy=0;" edge="1" parent="1" source="-UbSz86vpk3sn-XPbI4o-16" target="-UbSz86vpk3sn-XPbI4o-3">
          <mxGeometry width="50" height="50" relative="1" as="geometry">
            <mxPoint x="160" y="218" as="sourcePoint" />
            <mxPoint x="430" y="258" as="targetPoint" />
            <Array as="points">
              <mxPoint x="160" y="98" />
            </Array>
          </mxGeometry>
        </mxCell>
        <mxCell id="-UbSz86vpk3sn-XPbI4o-11" value="" style="edgeStyle=segmentEdgeStyle;endArrow=classic;html=1;curved=0;rounded=0;endSize=8;startSize=8;entryX=0;entryY=0.5;entryDx=0;entryDy=0;" edge="1" parent="1" target="-UbSz86vpk3sn-XPbI4o-8">
          <mxGeometry width="50" height="50" relative="1" as="geometry">
            <mxPoint x="160" y="218" as="sourcePoint" />
            <mxPoint x="210" y="188" as="targetPoint" />
            <Array as="points">
              <mxPoint x="160" y="338" />
            </Array>
          </mxGeometry>
        </mxCell>
        <mxCell id="-UbSz86vpk3sn-XPbI4o-12" value="" style="endArrow=classic;html=1;rounded=0;entryX=0.233;entryY=0.667;entryDx=0;entryDy=0;entryPerimeter=0;" edge="1" parent="1" source="-UbSz86vpk3sn-XPbI4o-19" target="-UbSz86vpk3sn-XPbI4o-9">
          <mxGeometry width="50" height="50" relative="1" as="geometry">
            <mxPoint x="90" y="218" as="sourcePoint" />
            <mxPoint x="430" y="258" as="targetPoint" />
          </mxGeometry>
        </mxCell>
        <mxCell id="-UbSz86vpk3sn-XPbI4o-13" value="" style="endArrow=classic;html=1;rounded=0;exitX=1;exitY=0.5;exitDx=0;exitDy=0;entryX=0;entryY=0.5;entryDx=0;entryDy=0;" edge="1" parent="1" source="-UbSz86vpk3sn-XPbI4o-3" target="-UbSz86vpk3sn-XPbI4o-4">
          <mxGeometry width="50" height="50" relative="1" as="geometry">
            <mxPoint x="380" y="308" as="sourcePoint" />
            <mxPoint x="430" y="258" as="targetPoint" />
          </mxGeometry>
        </mxCell>
        <mxCell id="-UbSz86vpk3sn-XPbI4o-14" value="" style="endArrow=classic;html=1;rounded=0;exitX=1;exitY=0.5;exitDx=0;exitDy=0;entryX=0;entryY=0.5;entryDx=0;entryDy=0;" edge="1" parent="1" source="-UbSz86vpk3sn-XPbI4o-7" target="-UbSz86vpk3sn-XPbI4o-5">
          <mxGeometry width="50" height="50" relative="1" as="geometry">
            <mxPoint x="290" y="108" as="sourcePoint" />
            <mxPoint x="330" y="108" as="targetPoint" />
          </mxGeometry>
        </mxCell>
        <mxCell id="-UbSz86vpk3sn-XPbI4o-15" value="" style="endArrow=classic;html=1;rounded=0;exitX=1;exitY=0.5;exitDx=0;exitDy=0;entryX=0;entryY=0.5;entryDx=0;entryDy=0;" edge="1" parent="1" source="-UbSz86vpk3sn-XPbI4o-8" target="-UbSz86vpk3sn-XPbI4o-6">
          <mxGeometry width="50" height="50" relative="1" as="geometry">
            <mxPoint x="290" y="188" as="sourcePoint" />
            <mxPoint x="330" y="188" as="targetPoint" />
          </mxGeometry>
        </mxCell>
        <mxCell id="-UbSz86vpk3sn-XPbI4o-16" value="" style="shape=waypoint;sketch=0;fillStyle=solid;size=6;pointerEvents=1;points=[];fillColor=none;resizable=0;rotatable=0;perimeter=centerPerimeter;snapToPoint=1;" vertex="1" parent="1">
          <mxGeometry x="150" y="168" width="20" height="20" as="geometry" />
        </mxCell>
        <mxCell id="-UbSz86vpk3sn-XPbI4o-17" value="" style="endArrow=classic;html=1;rounded=0;exitX=0.633;exitY=0.867;exitDx=0;exitDy=0;exitPerimeter=0;entryX=0;entryY=0.5;entryDx=0;entryDy=0;" edge="1" parent="1" source="-UbSz86vpk3sn-XPbI4o-16" target="-UbSz86vpk3sn-XPbI4o-7">
          <mxGeometry width="50" height="50" relative="1" as="geometry">
            <mxPoint x="380" y="308" as="sourcePoint" />
            <mxPoint x="430" y="258" as="targetPoint" />
          </mxGeometry>
        </mxCell>
        <mxCell id="-UbSz86vpk3sn-XPbI4o-18" value="" style="endArrow=none;html=1;rounded=0;exitX=0.8;exitY=0.867;exitDx=0;exitDy=0;exitPerimeter=0;" edge="1" parent="1" source="-UbSz86vpk3sn-XPbI4o-9">
          <mxGeometry width="50" height="50" relative="1" as="geometry">
            <mxPoint x="380" y="308" as="sourcePoint" />
            <mxPoint x="160" y="178" as="targetPoint" />
          </mxGeometry>
        </mxCell>
        <mxCell id="-UbSz86vpk3sn-XPbI4o-19" value="&lt;font style=&quot;font-size: 15px;&quot;&gt;$$x[n]$$&lt;/font&gt;" style="text;html=1;align=center;verticalAlign=middle;whiteSpace=wrap;rounded=0;" vertex="1" parent="1">
          <mxGeometry x="79" y="203" width="40" height="30" as="geometry" />
        </mxCell>
        <mxCell id="-UbSz86vpk3sn-XPbI4o-33" value="" style="endArrow=classic;html=1;rounded=0;exitX=1;exitY=0.5;exitDx=0;exitDy=0;" edge="1" parent="1" source="-UbSz86vpk3sn-XPbI4o-4">
          <mxGeometry width="50" height="50" relative="1" as="geometry">
            <mxPoint x="430" y="308" as="sourcePoint" />
            <mxPoint x="400" y="98" as="targetPoint" />
          </mxGeometry>
        </mxCell>
        <mxCell id="-UbSz86vpk3sn-XPbI4o-34" value="" style="endArrow=classic;html=1;rounded=0;exitX=1;exitY=0.5;exitDx=0;exitDy=0;" edge="1" parent="1" source="-UbSz86vpk3sn-XPbI4o-5">
          <mxGeometry width="50" height="50" relative="1" as="geometry">
            <mxPoint x="410" y="108" as="sourcePoint" />
            <mxPoint x="400" y="178" as="targetPoint" />
          </mxGeometry>
        </mxCell>
        <mxCell id="-UbSz86vpk3sn-XPbI4o-35" value="" style="endArrow=classic;html=1;rounded=0;exitX=1;exitY=0.5;exitDx=0;exitDy=0;" edge="1" parent="1" source="-UbSz86vpk3sn-XPbI4o-6">
          <mxGeometry width="50" height="50" relative="1" as="geometry">
            <mxPoint x="410" y="188" as="sourcePoint" />
            <mxPoint x="400" y="338" as="targetPoint" />
          </mxGeometry>
        </mxCell>
        <mxCell id="-UbSz86vpk3sn-XPbI4o-38" value="&lt;font style=&quot;font-size: 20px;&quot;&gt;$$\vdots$$&lt;/font&gt;" style="text;html=1;align=center;verticalAlign=middle;whiteSpace=wrap;rounded=0;direction=north;" vertex="1" parent="1">
          <mxGeometry x="225" y="228" width="30" height="60" as="geometry" />
        </mxCell>
        <mxCell id="-UbSz86vpk3sn-XPbI4o-39" value="&lt;font style=&quot;font-size: 20px;&quot;&gt;$$\vdots$$&lt;/font&gt;" style="text;html=1;align=center;verticalAlign=middle;whiteSpace=wrap;rounded=0;direction=north;" vertex="1" parent="1">
          <mxGeometry x="325" y="228" width="30" height="60" as="geometry" />
        </mxCell>
        <mxCell id="-UbSz86vpk3sn-XPbI4o-42" value="&lt;font style=&quot;font-size: 16px;&quot;&gt;$$F_{0}(z)$$&lt;/font&gt;" style="rounded=0;whiteSpace=wrap;html=1;" vertex="1" parent="1">
          <mxGeometry x="198" y="438" width="80" height="40" as="geometry" />
        </mxCell>
        <mxCell id="-UbSz86vpk3sn-XPbI4o-43" value="&lt;font style=&quot;font-size: 16px;&quot;&gt;$$F_{1}(z)$$&lt;/font&gt;" style="rounded=0;whiteSpace=wrap;html=1;" vertex="1" parent="1">
          <mxGeometry x="198" y="518" width="80" height="40" as="geometry" />
        </mxCell>
        <mxCell id="-UbSz86vpk3sn-XPbI4o-44" value="&lt;font style=&quot;font-size: 16px;&quot;&gt;$$F_{M-1}(z)$$&lt;/font&gt;" style="rounded=0;whiteSpace=wrap;html=1;" vertex="1" parent="1">
          <mxGeometry x="198" y="678" width="80" height="40" as="geometry" />
        </mxCell>
        <mxCell id="-UbSz86vpk3sn-XPbI4o-45" value="&lt;font style=&quot;font-size: 16px;&quot;&gt;$$\uparrow&lt;br&gt;M$$&lt;/font&gt;" style="rounded=0;whiteSpace=wrap;html=1;" vertex="1" parent="1">
          <mxGeometry x="120" y="438" width="38" height="40" as="geometry" />
        </mxCell>
        <mxCell id="-UbSz86vpk3sn-XPbI4o-46" value="&lt;font style=&quot;font-size: 16px;&quot;&gt;$$\uparrow&lt;br&gt;M$$&lt;/font&gt;" style="rounded=0;whiteSpace=wrap;html=1;" vertex="1" parent="1">
          <mxGeometry x="120" y="518" width="38" height="40" as="geometry" />
        </mxCell>
        <mxCell id="-UbSz86vpk3sn-XPbI4o-47" value="&lt;font style=&quot;font-size: 16px;&quot;&gt;$$\uparrow&lt;br&gt;M$$&lt;/font&gt;" style="rounded=0;whiteSpace=wrap;html=1;" vertex="1" parent="1">
          <mxGeometry x="120" y="678" width="38" height="40" as="geometry" />
        </mxCell>
        <mxCell id="-UbSz86vpk3sn-XPbI4o-48" value="" style="endArrow=classic;html=1;rounded=0;exitX=1;exitY=0.5;exitDx=0;exitDy=0;entryX=0;entryY=0.5;entryDx=0;entryDy=0;" edge="1" parent="1" source="-UbSz86vpk3sn-XPbI4o-45" target="-UbSz86vpk3sn-XPbI4o-42">
          <mxGeometry width="50" height="50" relative="1" as="geometry">
            <mxPoint x="288" y="468" as="sourcePoint" />
            <mxPoint x="328" y="468" as="targetPoint" />
          </mxGeometry>
        </mxCell>
        <mxCell id="-UbSz86vpk3sn-XPbI4o-49" value="" style="endArrow=classic;html=1;rounded=0;exitX=1;exitY=0.5;exitDx=0;exitDy=0;entryX=0;entryY=0.5;entryDx=0;entryDy=0;" edge="1" parent="1" source="-UbSz86vpk3sn-XPbI4o-46" target="-UbSz86vpk3sn-XPbI4o-43">
          <mxGeometry width="50" height="50" relative="1" as="geometry">
            <mxPoint x="168" y="468" as="sourcePoint" />
            <mxPoint x="208" y="468" as="targetPoint" />
          </mxGeometry>
        </mxCell>
        <mxCell id="-UbSz86vpk3sn-XPbI4o-50" value="" style="endArrow=classic;html=1;rounded=0;exitX=1;exitY=0.5;exitDx=0;exitDy=0;entryX=0;entryY=0.5;entryDx=0;entryDy=0;" edge="1" parent="1" source="-UbSz86vpk3sn-XPbI4o-47" target="-UbSz86vpk3sn-XPbI4o-44">
          <mxGeometry width="50" height="50" relative="1" as="geometry">
            <mxPoint x="168" y="548" as="sourcePoint" />
            <mxPoint x="208" y="548" as="targetPoint" />
          </mxGeometry>
        </mxCell>
        <mxCell id="-UbSz86vpk3sn-XPbI4o-51" value="" style="edgeStyle=segmentEdgeStyle;endArrow=classic;html=1;curved=0;rounded=0;endSize=8;startSize=8;exitX=1;exitY=0.5;exitDx=0;exitDy=0;entryX=0.5;entryY=1;entryDx=0;entryDy=0;entryPerimeter=0;" edge="1" parent="1" source="-UbSz86vpk3sn-XPbI4o-44" target="-UbSz86vpk3sn-XPbI4o-52">
          <mxGeometry width="50" height="50" relative="1" as="geometry">
            <mxPoint x="208" y="738" as="sourcePoint" />
            <mxPoint x="318" y="638" as="targetPoint" />
            <Array as="points">
              <mxPoint x="318" y="698" />
            </Array>
          </mxGeometry>
        </mxCell>
        <mxCell id="-UbSz86vpk3sn-XPbI4o-52" value="" style="verticalLabelPosition=bottom;verticalAlign=top;html=1;shape=mxgraph.flowchart.summing_function;" vertex="1" parent="1">
          <mxGeometry x="308" y="568" width="20" height="20" as="geometry" />
        </mxCell>
        <mxCell id="-UbSz86vpk3sn-XPbI4o-53" value="" style="edgeStyle=segmentEdgeStyle;endArrow=classic;html=1;curved=0;rounded=0;endSize=8;startSize=8;entryX=0.5;entryY=0;entryDx=0;entryDy=0;exitX=1;exitY=0.5;exitDx=0;exitDy=0;entryPerimeter=0;" edge="1" parent="1" source="-UbSz86vpk3sn-XPbI4o-42" target="-UbSz86vpk3sn-XPbI4o-52">
          <mxGeometry width="50" height="50" relative="1" as="geometry">
            <mxPoint x="348" y="538" as="sourcePoint" />
            <mxPoint x="388" y="458" as="targetPoint" />
            <Array as="points" />
          </mxGeometry>
        </mxCell>
        <mxCell id="-UbSz86vpk3sn-XPbI4o-54" value="" style="endArrow=classic;html=1;rounded=0;exitX=1;exitY=0.5;exitDx=0;exitDy=0;entryX=0.145;entryY=0.145;entryDx=0;entryDy=0;entryPerimeter=0;" edge="1" parent="1" source="-UbSz86vpk3sn-XPbI4o-43" target="-UbSz86vpk3sn-XPbI4o-52">
          <mxGeometry width="50" height="50" relative="1" as="geometry">
            <mxPoint x="28" y="668" as="sourcePoint" />
            <mxPoint x="78" y="618" as="targetPoint" />
          </mxGeometry>
        </mxCell>
        <mxCell id="-UbSz86vpk3sn-XPbI4o-55" value="" style="endArrow=classic;html=1;rounded=0;exitX=1;exitY=0.5;exitDx=0;exitDy=0;exitPerimeter=0;entryX=0;entryY=0.5;entryDx=0;entryDy=0;" edge="1" parent="1" source="-UbSz86vpk3sn-XPbI4o-52" target="-UbSz86vpk3sn-XPbI4o-56">
          <mxGeometry width="50" height="50" relative="1" as="geometry">
            <mxPoint x="328" y="577.5" as="sourcePoint" />
            <mxPoint x="368" y="578" as="targetPoint" />
          </mxGeometry>
        </mxCell>
        <mxCell id="-UbSz86vpk3sn-XPbI4o-56" value="&lt;font style=&quot;font-size: 15px;&quot;&gt;$$\hat{x}[n]$$&lt;/font&gt;" style="text;html=1;align=center;verticalAlign=middle;whiteSpace=wrap;rounded=0;" vertex="1" parent="1">
          <mxGeometry x="358" y="563" width="40" height="30" as="geometry" />
        </mxCell>
        <mxCell id="-UbSz86vpk3sn-XPbI4o-57" value="&lt;font style=&quot;font-size: 20px;&quot;&gt;$$\vdots$$&lt;/font&gt;" style="text;html=1;align=center;verticalAlign=middle;whiteSpace=wrap;rounded=0;direction=north;" vertex="1" parent="1">
          <mxGeometry x="124" y="588" width="30" height="60" as="geometry" />
        </mxCell>
        <mxCell id="-UbSz86vpk3sn-XPbI4o-58" value="&lt;font style=&quot;font-size: 20px;&quot;&gt;$$\vdots$$&lt;/font&gt;" style="text;html=1;align=center;verticalAlign=middle;whiteSpace=wrap;rounded=0;direction=north;" vertex="1" parent="1">
          <mxGeometry x="223" y="588" width="30" height="60" as="geometry" />
        </mxCell>
        <mxCell id="-UbSz86vpk3sn-XPbI4o-59" value="" style="endArrow=classic;html=1;rounded=0;exitX=1;exitY=0.5;exitDx=0;exitDy=0;" edge="1" parent="1">
          <mxGeometry width="50" height="50" relative="1" as="geometry">
            <mxPoint x="80" y="457.5" as="sourcePoint" />
            <mxPoint x="120" y="457.5" as="targetPoint" />
          </mxGeometry>
        </mxCell>
        <mxCell id="-UbSz86vpk3sn-XPbI4o-60" value="" style="endArrow=classic;html=1;rounded=0;exitX=1;exitY=0.5;exitDx=0;exitDy=0;" edge="1" parent="1">
          <mxGeometry width="50" height="50" relative="1" as="geometry">
            <mxPoint x="80" y="537.5" as="sourcePoint" />
            <mxPoint x="120" y="537.5" as="targetPoint" />
          </mxGeometry>
        </mxCell>
        <mxCell id="-UbSz86vpk3sn-XPbI4o-61" value="" style="endArrow=classic;html=1;rounded=0;exitX=1;exitY=0.5;exitDx=0;exitDy=0;" edge="1" parent="1">
          <mxGeometry width="50" height="50" relative="1" as="geometry">
            <mxPoint x="80" y="697.5" as="sourcePoint" />
            <mxPoint x="120" y="697.5" as="targetPoint" />
          </mxGeometry>
        </mxCell>
        <mxCell id="-UbSz86vpk3sn-XPbI4o-63" value="&lt;font style=&quot;font-size: 16px;&quot;&gt;$$\downarrow&lt;br&gt;M$$&lt;/font&gt;" style="rounded=0;whiteSpace=wrap;html=1;" vertex="1" parent="1">
          <mxGeometry x="720" y="78" width="40" height="40" as="geometry" />
        </mxCell>
        <mxCell id="-UbSz86vpk3sn-XPbI4o-64" value="&lt;font style=&quot;font-size: 16px;&quot;&gt;$$\downarrow&lt;br&gt;M$$&lt;/font&gt;" style="rounded=0;whiteSpace=wrap;html=1;" vertex="1" parent="1">
          <mxGeometry x="720" y="158" width="40" height="40" as="geometry" />
        </mxCell>
        <mxCell id="-UbSz86vpk3sn-XPbI4o-65" value="&lt;font style=&quot;font-size: 16px;&quot;&gt;$$\downarrow&lt;br&gt;M$$&lt;/font&gt;" style="rounded=0;whiteSpace=wrap;html=1;" vertex="1" parent="1">
          <mxGeometry x="720" y="318" width="40" height="40" as="geometry" />
        </mxCell>
        <mxCell id="-UbSz86vpk3sn-XPbI4o-68" value="" style="shape=waypoint;sketch=0;fillStyle=solid;size=6;pointerEvents=1;points=[];fillColor=none;resizable=0;rotatable=0;perimeter=centerPerimeter;snapToPoint=1;" vertex="1" parent="1">
          <mxGeometry x="550" y="88" width="20" height="20" as="geometry" />
        </mxCell>
        <mxCell id="-UbSz86vpk3sn-XPbI4o-71" value="" style="endArrow=classic;html=1;rounded=0;" edge="1" parent="1" source="-UbSz86vpk3sn-XPbI4o-78">
          <mxGeometry width="50" height="50" relative="1" as="geometry">
            <mxPoint x="490" y="98" as="sourcePoint" />
            <mxPoint x="601" y="98" as="targetPoint" />
          </mxGeometry>
        </mxCell>
        <mxCell id="-UbSz86vpk3sn-XPbI4o-72" value="" style="endArrow=classic;html=1;rounded=0;entryX=0;entryY=0.5;entryDx=0;entryDy=0;" edge="1" parent="1" target="-UbSz86vpk3sn-XPbI4o-63">
          <mxGeometry width="50" height="50" relative="1" as="geometry">
            <mxPoint x="681" y="98" as="sourcePoint" />
            <mxPoint x="830" y="258" as="targetPoint" />
          </mxGeometry>
        </mxCell>
        <mxCell id="-UbSz86vpk3sn-XPbI4o-73" value="" style="endArrow=classic;html=1;rounded=0;exitX=1;exitY=0.5;exitDx=0;exitDy=0;entryX=0;entryY=0.5;entryDx=0;entryDy=0;" edge="1" parent="1" target="-UbSz86vpk3sn-XPbI4o-64">
          <mxGeometry width="50" height="50" relative="1" as="geometry">
            <mxPoint x="680" y="178" as="sourcePoint" />
            <mxPoint x="730" y="108" as="targetPoint" />
          </mxGeometry>
        </mxCell>
        <mxCell id="-UbSz86vpk3sn-XPbI4o-74" value="" style="endArrow=classic;html=1;rounded=0;exitX=1;exitY=0.5;exitDx=0;exitDy=0;entryX=0;entryY=0.5;entryDx=0;entryDy=0;" edge="1" parent="1" target="-UbSz86vpk3sn-XPbI4o-65">
          <mxGeometry width="50" height="50" relative="1" as="geometry">
            <mxPoint x="680" y="338" as="sourcePoint" />
            <mxPoint x="730" y="188" as="targetPoint" />
          </mxGeometry>
        </mxCell>
        <mxCell id="-UbSz86vpk3sn-XPbI4o-75" value="" style="shape=waypoint;sketch=0;fillStyle=solid;size=6;pointerEvents=1;points=[];fillColor=none;resizable=0;rotatable=0;perimeter=centerPerimeter;snapToPoint=1;" vertex="1" parent="1">
          <mxGeometry x="550" y="168" width="20" height="20" as="geometry" />
        </mxCell>
        <mxCell id="-UbSz86vpk3sn-XPbI4o-76" value="" style="endArrow=classic;html=1;rounded=0;exitX=0.633;exitY=0.867;exitDx=0;exitDy=0;exitPerimeter=0;entryX=0;entryY=0.5;entryDx=0;entryDy=0;" edge="1" parent="1" source="-UbSz86vpk3sn-XPbI4o-75">
          <mxGeometry width="50" height="50" relative="1" as="geometry">
            <mxPoint x="780" y="308" as="sourcePoint" />
            <mxPoint x="600" y="178" as="targetPoint" />
          </mxGeometry>
        </mxCell>
        <mxCell id="-UbSz86vpk3sn-XPbI4o-78" value="&lt;font style=&quot;font-size: 15px;&quot;&gt;$$x[n]$$&lt;/font&gt;" style="text;html=1;align=center;verticalAlign=middle;whiteSpace=wrap;rounded=0;" vertex="1" parent="1">
          <mxGeometry x="479" y="83" width="40" height="30" as="geometry" />
        </mxCell>
        <mxCell id="-UbSz86vpk3sn-XPbI4o-79" value="" style="endArrow=classic;html=1;rounded=0;exitX=1;exitY=0.5;exitDx=0;exitDy=0;" edge="1" parent="1" source="-UbSz86vpk3sn-XPbI4o-63">
          <mxGeometry width="50" height="50" relative="1" as="geometry">
            <mxPoint x="830" y="308" as="sourcePoint" />
            <mxPoint x="800" y="98" as="targetPoint" />
          </mxGeometry>
        </mxCell>
        <mxCell id="-UbSz86vpk3sn-XPbI4o-80" value="" style="endArrow=classic;html=1;rounded=0;exitX=1;exitY=0.5;exitDx=0;exitDy=0;" edge="1" parent="1" source="-UbSz86vpk3sn-XPbI4o-64">
          <mxGeometry width="50" height="50" relative="1" as="geometry">
            <mxPoint x="810" y="108" as="sourcePoint" />
            <mxPoint x="800" y="178" as="targetPoint" />
          </mxGeometry>
        </mxCell>
        <mxCell id="-UbSz86vpk3sn-XPbI4o-81" value="" style="endArrow=classic;html=1;rounded=0;exitX=1;exitY=0.5;exitDx=0;exitDy=0;" edge="1" parent="1" source="-UbSz86vpk3sn-XPbI4o-65">
          <mxGeometry width="50" height="50" relative="1" as="geometry">
            <mxPoint x="810" y="188" as="sourcePoint" />
            <mxPoint x="800" y="338" as="targetPoint" />
          </mxGeometry>
        </mxCell>
        <mxCell id="-UbSz86vpk3sn-XPbI4o-83" value="&lt;font style=&quot;font-size: 20px;&quot;&gt;$$\vdots$$&lt;/font&gt;" style="text;html=1;align=center;verticalAlign=middle;whiteSpace=wrap;rounded=0;direction=north;" vertex="1" parent="1">
          <mxGeometry x="725" y="228" width="30" height="60" as="geometry" />
        </mxCell>
        <mxCell id="-UbSz86vpk3sn-XPbI4o-85" value="&lt;font style=&quot;font-size: 15px;&quot;&gt;$$z^{-1}$$&lt;/font&gt;" style="rounded=0;whiteSpace=wrap;html=1;" vertex="1" parent="1">
          <mxGeometry x="539.5" y="118" width="41" height="40" as="geometry" />
        </mxCell>
        <mxCell id="-UbSz86vpk3sn-XPbI4o-86" value="&lt;font style=&quot;font-size: 15px;&quot;&gt;$$z^{-1}$$&lt;/font&gt;" style="rounded=0;whiteSpace=wrap;html=1;" vertex="1" parent="1">
          <mxGeometry x="539.5" y="198" width="41" height="40" as="geometry" />
        </mxCell>
        <mxCell id="-UbSz86vpk3sn-XPbI4o-87" value="" style="endArrow=classic;html=1;rounded=0;exitX=0.65;exitY=0.8;exitDx=0;exitDy=0;exitPerimeter=0;entryX=0.5;entryY=0;entryDx=0;entryDy=0;" edge="1" parent="1" source="-UbSz86vpk3sn-XPbI4o-68" target="-UbSz86vpk3sn-XPbI4o-85">
          <mxGeometry width="50" height="50" relative="1" as="geometry">
            <mxPoint x="540.5" y="48" as="sourcePoint" />
            <mxPoint x="580.5" y="48" as="targetPoint" />
          </mxGeometry>
        </mxCell>
        <mxCell id="-UbSz86vpk3sn-XPbI4o-89" value="" style="endArrow=classic;html=1;rounded=0;exitX=0.5;exitY=1;exitDx=0;exitDy=0;entryX=0.5;entryY=0;entryDx=0;entryDy=0;" edge="1" parent="1" source="-UbSz86vpk3sn-XPbI4o-85" target="-UbSz86vpk3sn-XPbI4o-86">
          <mxGeometry width="50" height="50" relative="1" as="geometry">
            <mxPoint x="499.5" y="177.5" as="sourcePoint" />
            <mxPoint x="539.5" y="177.5" as="targetPoint" />
          </mxGeometry>
        </mxCell>
        <mxCell id="-UbSz86vpk3sn-XPbI4o-91" value="&lt;font style=&quot;font-size: 20px;&quot;&gt;$$\vdots$$&lt;/font&gt;" style="text;html=1;align=center;verticalAlign=middle;whiteSpace=wrap;rounded=0;direction=north;" vertex="1" parent="1">
          <mxGeometry x="545" y="268" width="30" height="40" as="geometry" />
        </mxCell>
        <mxCell id="-UbSz86vpk3sn-XPbI4o-92" value="" style="endArrow=classic;html=1;rounded=0;entryX=1;entryY=0.5;entryDx=0;entryDy=0;" edge="1" parent="1" target="-UbSz86vpk3sn-XPbI4o-91">
          <mxGeometry width="50" height="50" relative="1" as="geometry">
            <mxPoint x="560" y="238" as="sourcePoint" />
            <mxPoint x="610" y="188" as="targetPoint" />
          </mxGeometry>
        </mxCell>
        <mxCell id="-UbSz86vpk3sn-XPbI4o-94" value="" style="edgeStyle=segmentEdgeStyle;endArrow=classic;html=1;curved=0;rounded=0;endSize=8;startSize=8;exitX=0;exitY=0.5;exitDx=0;exitDy=0;entryX=0;entryY=0.5;entryDx=0;entryDy=0;" edge="1" parent="1" source="-UbSz86vpk3sn-XPbI4o-91">
          <mxGeometry width="50" height="50" relative="1" as="geometry">
            <mxPoint x="711" y="288" as="sourcePoint" />
            <mxPoint x="600" y="338" as="targetPoint" />
            <Array as="points">
              <mxPoint x="560" y="338" />
            </Array>
          </mxGeometry>
        </mxCell>
        <mxCell id="-UbSz86vpk3sn-XPbI4o-96" value="&lt;font style=&quot;font-size: 20px;&quot;&gt;$$\boldsymbol{E}(z^{M})$$&lt;/font&gt;" style="rounded=0;whiteSpace=wrap;html=1;" vertex="1" parent="1">
          <mxGeometry x="600" y="78" width="81" height="280" as="geometry" />
        </mxCell>
        <mxCell id="-UbSz86vpk3sn-XPbI4o-100" value="" style="shape=waypoint;sketch=0;fillStyle=solid;size=6;pointerEvents=1;points=[];fillColor=none;resizable=0;rotatable=0;perimeter=centerPerimeter;snapToPoint=1;" vertex="1" parent="1">
          <mxGeometry x="950" y="88" width="20" height="20" as="geometry" />
        </mxCell>
        <mxCell id="-UbSz86vpk3sn-XPbI4o-101" value="" style="endArrow=classic;html=1;rounded=0;entryX=0;entryY=0.5;entryDx=0;entryDy=0;" edge="1" parent="1" source="-UbSz86vpk3sn-XPbI4o-107" target="-UbSz86vpk3sn-XPbI4o-209">
          <mxGeometry width="50" height="50" relative="1" as="geometry">
            <mxPoint x="890" y="98" as="sourcePoint" />
            <mxPoint x="1001" y="98" as="targetPoint" />
          </mxGeometry>
        </mxCell>
        <mxCell id="-UbSz86vpk3sn-XPbI4o-102" value="" style="endArrow=classic;html=1;rounded=0;entryX=0;entryY=0.5;entryDx=0;entryDy=0;" edge="1" parent="1">
          <mxGeometry width="50" height="50" relative="1" as="geometry">
            <mxPoint x="1160" y="98" as="sourcePoint" />
            <mxPoint x="1199" y="98" as="targetPoint" />
          </mxGeometry>
        </mxCell>
        <mxCell id="-UbSz86vpk3sn-XPbI4o-103" value="" style="endArrow=classic;html=1;rounded=0;exitX=1;exitY=0.5;exitDx=0;exitDy=0;entryX=0;entryY=0.5;entryDx=0;entryDy=0;" edge="1" parent="1">
          <mxGeometry width="50" height="50" relative="1" as="geometry">
            <mxPoint x="1159" y="178" as="sourcePoint" />
            <mxPoint x="1199" y="178" as="targetPoint" />
          </mxGeometry>
        </mxCell>
        <mxCell id="-UbSz86vpk3sn-XPbI4o-104" value="" style="endArrow=classic;html=1;rounded=0;exitX=1;exitY=0.5;exitDx=0;exitDy=0;entryX=0;entryY=0.5;entryDx=0;entryDy=0;" edge="1" parent="1">
          <mxGeometry width="50" height="50" relative="1" as="geometry">
            <mxPoint x="1159" y="338" as="sourcePoint" />
            <mxPoint x="1199" y="338" as="targetPoint" />
          </mxGeometry>
        </mxCell>
        <mxCell id="-UbSz86vpk3sn-XPbI4o-105" value="" style="shape=waypoint;sketch=0;fillStyle=solid;size=6;pointerEvents=1;points=[];fillColor=none;resizable=0;rotatable=0;perimeter=centerPerimeter;snapToPoint=1;" vertex="1" parent="1">
          <mxGeometry x="950" y="168" width="20" height="20" as="geometry" />
        </mxCell>
        <mxCell id="-UbSz86vpk3sn-XPbI4o-106" value="" style="endArrow=classic;html=1;rounded=0;exitX=0.633;exitY=0.867;exitDx=0;exitDy=0;exitPerimeter=0;entryX=0;entryY=0.5;entryDx=0;entryDy=0;" edge="1" parent="1" source="-UbSz86vpk3sn-XPbI4o-105">
          <mxGeometry width="50" height="50" relative="1" as="geometry">
            <mxPoint x="1180" y="308" as="sourcePoint" />
            <mxPoint x="1000" y="178" as="targetPoint" />
          </mxGeometry>
        </mxCell>
        <mxCell id="-UbSz86vpk3sn-XPbI4o-107" value="&lt;font style=&quot;font-size: 15px;&quot;&gt;$$x[n]$$&lt;/font&gt;" style="text;html=1;align=center;verticalAlign=middle;whiteSpace=wrap;rounded=0;" vertex="1" parent="1">
          <mxGeometry x="879" y="82" width="40" height="30" as="geometry" />
        </mxCell>
        <mxCell id="-UbSz86vpk3sn-XPbI4o-111" value="&lt;font style=&quot;font-size: 20px;&quot;&gt;$$\vdots$$&lt;/font&gt;" style="text;html=1;align=center;verticalAlign=middle;whiteSpace=wrap;rounded=0;direction=north;" vertex="1" parent="1">
          <mxGeometry x="1168" y="228" width="30" height="60" as="geometry" />
        </mxCell>
        <mxCell id="-UbSz86vpk3sn-XPbI4o-112" value="&lt;font style=&quot;font-size: 15px;&quot;&gt;$$z^{-1}$$&lt;/font&gt;" style="rounded=0;whiteSpace=wrap;html=1;" vertex="1" parent="1">
          <mxGeometry x="939.5" y="118" width="41" height="40" as="geometry" />
        </mxCell>
        <mxCell id="-UbSz86vpk3sn-XPbI4o-113" value="&lt;font style=&quot;font-size: 15px;&quot;&gt;$$z^{-1}$$&lt;/font&gt;" style="rounded=0;whiteSpace=wrap;html=1;" vertex="1" parent="1">
          <mxGeometry x="939.5" y="198" width="41" height="40" as="geometry" />
        </mxCell>
        <mxCell id="-UbSz86vpk3sn-XPbI4o-114" value="" style="endArrow=classic;html=1;rounded=0;exitX=0.65;exitY=0.8;exitDx=0;exitDy=0;exitPerimeter=0;entryX=0.5;entryY=0;entryDx=0;entryDy=0;" edge="1" parent="1" source="-UbSz86vpk3sn-XPbI4o-100" target="-UbSz86vpk3sn-XPbI4o-112">
          <mxGeometry width="50" height="50" relative="1" as="geometry">
            <mxPoint x="940.5" y="48" as="sourcePoint" />
            <mxPoint x="980.5" y="48" as="targetPoint" />
          </mxGeometry>
        </mxCell>
        <mxCell id="-UbSz86vpk3sn-XPbI4o-115" value="" style="endArrow=classic;html=1;rounded=0;exitX=0.5;exitY=1;exitDx=0;exitDy=0;entryX=0.5;entryY=0;entryDx=0;entryDy=0;" edge="1" parent="1" source="-UbSz86vpk3sn-XPbI4o-112" target="-UbSz86vpk3sn-XPbI4o-113">
          <mxGeometry width="50" height="50" relative="1" as="geometry">
            <mxPoint x="899.5" y="177.5" as="sourcePoint" />
            <mxPoint x="939.5" y="177.5" as="targetPoint" />
          </mxGeometry>
        </mxCell>
        <mxCell id="-UbSz86vpk3sn-XPbI4o-116" value="&lt;font style=&quot;font-size: 20px;&quot;&gt;$$\vdots$$&lt;/font&gt;" style="text;html=1;align=center;verticalAlign=middle;whiteSpace=wrap;rounded=0;direction=north;" vertex="1" parent="1">
          <mxGeometry x="945" y="268" width="30" height="40" as="geometry" />
        </mxCell>
        <mxCell id="-UbSz86vpk3sn-XPbI4o-117" value="" style="endArrow=classic;html=1;rounded=0;entryX=1;entryY=0.5;entryDx=0;entryDy=0;" edge="1" parent="1" target="-UbSz86vpk3sn-XPbI4o-116">
          <mxGeometry width="50" height="50" relative="1" as="geometry">
            <mxPoint x="960" y="238" as="sourcePoint" />
            <mxPoint x="1010" y="188" as="targetPoint" />
          </mxGeometry>
        </mxCell>
        <mxCell id="-UbSz86vpk3sn-XPbI4o-118" value="" style="edgeStyle=segmentEdgeStyle;endArrow=classic;html=1;curved=0;rounded=0;endSize=8;startSize=8;exitX=0;exitY=0.5;exitDx=0;exitDy=0;entryX=0;entryY=0.5;entryDx=0;entryDy=0;" edge="1" parent="1" source="-UbSz86vpk3sn-XPbI4o-116">
          <mxGeometry width="50" height="50" relative="1" as="geometry">
            <mxPoint x="1111" y="288" as="sourcePoint" />
            <mxPoint x="1000" y="338" as="targetPoint" />
            <Array as="points">
              <mxPoint x="960" y="338" />
            </Array>
          </mxGeometry>
        </mxCell>
        <mxCell id="-UbSz86vpk3sn-XPbI4o-119" value="&lt;font style=&quot;font-size: 20px;&quot;&gt;$$\boldsymbol{E}(z)$$&lt;/font&gt;" style="rounded=0;whiteSpace=wrap;html=1;" vertex="1" parent="1">
          <mxGeometry x="1079" y="78" width="81" height="280" as="geometry" />
        </mxCell>
        <mxCell id="-UbSz86vpk3sn-XPbI4o-123" value="&lt;font style=&quot;font-size: 16px;&quot;&gt;$$\uparrow&lt;br&gt;M$$&lt;/font&gt;" style="rounded=0;whiteSpace=wrap;html=1;" vertex="1" parent="1">
          <mxGeometry x="519" y="439" width="38" height="40" as="geometry" />
        </mxCell>
        <mxCell id="-UbSz86vpk3sn-XPbI4o-124" value="&lt;font style=&quot;font-size: 16px;&quot;&gt;$$\uparrow&lt;br&gt;M$$&lt;/font&gt;" style="rounded=0;whiteSpace=wrap;html=1;" vertex="1" parent="1">
          <mxGeometry x="519" y="519" width="38" height="40" as="geometry" />
        </mxCell>
        <mxCell id="-UbSz86vpk3sn-XPbI4o-125" value="&lt;font style=&quot;font-size: 16px;&quot;&gt;$$\uparrow&lt;br&gt;M$$&lt;/font&gt;" style="rounded=0;whiteSpace=wrap;html=1;" vertex="1" parent="1">
          <mxGeometry x="519" y="679" width="38" height="40" as="geometry" />
        </mxCell>
        <mxCell id="-UbSz86vpk3sn-XPbI4o-126" value="" style="endArrow=classic;html=1;rounded=0;exitX=1;exitY=0.5;exitDx=0;exitDy=0;entryX=0;entryY=0.5;entryDx=0;entryDy=0;" edge="1" parent="1" source="-UbSz86vpk3sn-XPbI4o-123">
          <mxGeometry width="50" height="50" relative="1" as="geometry">
            <mxPoint x="687" y="469" as="sourcePoint" />
            <mxPoint x="597" y="459" as="targetPoint" />
          </mxGeometry>
        </mxCell>
        <mxCell id="-UbSz86vpk3sn-XPbI4o-127" value="" style="endArrow=classic;html=1;rounded=0;exitX=1;exitY=0.5;exitDx=0;exitDy=0;entryX=0;entryY=0.5;entryDx=0;entryDy=0;" edge="1" parent="1" source="-UbSz86vpk3sn-XPbI4o-124">
          <mxGeometry width="50" height="50" relative="1" as="geometry">
            <mxPoint x="567" y="469" as="sourcePoint" />
            <mxPoint x="597" y="539" as="targetPoint" />
          </mxGeometry>
        </mxCell>
        <mxCell id="-UbSz86vpk3sn-XPbI4o-128" value="" style="endArrow=classic;html=1;rounded=0;exitX=1;exitY=0.5;exitDx=0;exitDy=0;entryX=0;entryY=0.5;entryDx=0;entryDy=0;" edge="1" parent="1" source="-UbSz86vpk3sn-XPbI4o-125">
          <mxGeometry width="50" height="50" relative="1" as="geometry">
            <mxPoint x="567" y="549" as="sourcePoint" />
            <mxPoint x="597" y="699" as="targetPoint" />
          </mxGeometry>
        </mxCell>
        <mxCell id="-UbSz86vpk3sn-XPbI4o-130" value="" style="verticalLabelPosition=bottom;verticalAlign=top;html=1;shape=mxgraph.flowchart.summing_function;" vertex="1" parent="1">
          <mxGeometry x="708" y="690" width="20" height="20" as="geometry" />
        </mxCell>
        <mxCell id="-UbSz86vpk3sn-XPbI4o-133" value="" style="endArrow=classic;html=1;rounded=0;exitX=1;exitY=0.5;exitDx=0;exitDy=0;exitPerimeter=0;entryX=0;entryY=0.5;entryDx=0;entryDy=0;" edge="1" parent="1" source="-UbSz86vpk3sn-XPbI4o-130" target="-UbSz86vpk3sn-XPbI4o-134">
          <mxGeometry width="50" height="50" relative="1" as="geometry">
            <mxPoint x="728" y="699.5" as="sourcePoint" />
            <mxPoint x="768" y="700" as="targetPoint" />
          </mxGeometry>
        </mxCell>
        <mxCell id="-UbSz86vpk3sn-XPbI4o-134" value="&lt;font style=&quot;font-size: 15px;&quot;&gt;$$\hat{x}[n]$$&lt;/font&gt;" style="text;html=1;align=center;verticalAlign=middle;whiteSpace=wrap;rounded=0;" vertex="1" parent="1">
          <mxGeometry x="758" y="685" width="40" height="30" as="geometry" />
        </mxCell>
        <mxCell id="-UbSz86vpk3sn-XPbI4o-135" value="&lt;font style=&quot;font-size: 20px;&quot;&gt;$$\vdots$$&lt;/font&gt;" style="text;html=1;align=center;verticalAlign=middle;whiteSpace=wrap;rounded=0;direction=north;" vertex="1" parent="1">
          <mxGeometry x="523" y="589" width="30" height="60" as="geometry" />
        </mxCell>
        <mxCell id="-UbSz86vpk3sn-XPbI4o-137" value="" style="endArrow=classic;html=1;rounded=0;exitX=1;exitY=0.5;exitDx=0;exitDy=0;" edge="1" parent="1">
          <mxGeometry width="50" height="50" relative="1" as="geometry">
            <mxPoint x="479" y="458.5" as="sourcePoint" />
            <mxPoint x="519" y="458.5" as="targetPoint" />
          </mxGeometry>
        </mxCell>
        <mxCell id="-UbSz86vpk3sn-XPbI4o-138" value="" style="endArrow=classic;html=1;rounded=0;exitX=1;exitY=0.5;exitDx=0;exitDy=0;" edge="1" parent="1">
          <mxGeometry width="50" height="50" relative="1" as="geometry">
            <mxPoint x="479" y="538.5" as="sourcePoint" />
            <mxPoint x="519" y="538.5" as="targetPoint" />
          </mxGeometry>
        </mxCell>
        <mxCell id="-UbSz86vpk3sn-XPbI4o-139" value="" style="endArrow=classic;html=1;rounded=0;exitX=1;exitY=0.5;exitDx=0;exitDy=0;" edge="1" parent="1">
          <mxGeometry width="50" height="50" relative="1" as="geometry">
            <mxPoint x="479" y="698.5" as="sourcePoint" />
            <mxPoint x="519" y="698.5" as="targetPoint" />
          </mxGeometry>
        </mxCell>
        <mxCell id="-UbSz86vpk3sn-XPbI4o-140" value="&lt;font style=&quot;font-size: 20px;&quot;&gt;$$\boldsymbol{R}(z^{M})$$&lt;/font&gt;" style="rounded=0;whiteSpace=wrap;html=1;" vertex="1" parent="1">
          <mxGeometry x="599" y="439" width="80" height="281" as="geometry" />
        </mxCell>
        <mxCell id="-UbSz86vpk3sn-XPbI4o-141" value="&lt;font style=&quot;font-size: 15px;&quot;&gt;$$z^{-1}$$&lt;/font&gt;" style="rounded=0;whiteSpace=wrap;html=1;" vertex="1" parent="1">
          <mxGeometry x="696.5" y="470" width="41" height="40" as="geometry" />
        </mxCell>
        <mxCell id="-UbSz86vpk3sn-XPbI4o-142" value="&lt;font style=&quot;font-size: 15px;&quot;&gt;$$z^{-1}$$&lt;/font&gt;" style="rounded=0;whiteSpace=wrap;html=1;" vertex="1" parent="1">
          <mxGeometry x="696.5" y="570" width="41" height="40" as="geometry" />
        </mxCell>
        <mxCell id="-UbSz86vpk3sn-XPbI4o-143" value="" style="verticalLabelPosition=bottom;verticalAlign=top;html=1;shape=mxgraph.flowchart.summing_function;" vertex="1" parent="1">
          <mxGeometry x="707" y="529" width="20" height="20" as="geometry" />
        </mxCell>
        <mxCell id="-UbSz86vpk3sn-XPbI4o-144" value="&lt;font style=&quot;font-size: 20px;&quot;&gt;$$\vdots$$&lt;/font&gt;" style="text;html=1;align=center;verticalAlign=middle;whiteSpace=wrap;rounded=0;direction=north;" vertex="1" parent="1">
          <mxGeometry x="703" y="630" width="30" height="40" as="geometry" />
        </mxCell>
        <mxCell id="-UbSz86vpk3sn-XPbI4o-146" value="" style="edgeStyle=segmentEdgeStyle;endArrow=classic;html=1;curved=0;rounded=0;endSize=8;startSize=8;exitX=1.008;exitY=0.051;exitDx=0;exitDy=0;entryX=0.5;entryY=0;entryDx=0;entryDy=0;exitPerimeter=0;" edge="1" parent="1" source="-UbSz86vpk3sn-XPbI4o-140" target="-UbSz86vpk3sn-XPbI4o-141">
          <mxGeometry width="50" height="50" relative="1" as="geometry">
            <mxPoint x="779" y="408" as="sourcePoint" />
            <mxPoint x="819" y="438" as="targetPoint" />
            <Array as="points">
              <mxPoint x="717" y="453" />
            </Array>
          </mxGeometry>
        </mxCell>
        <mxCell id="-UbSz86vpk3sn-XPbI4o-147" value="" style="endArrow=classic;html=1;rounded=0;exitX=0.5;exitY=1;exitDx=0;exitDy=0;entryX=0.5;entryY=0;entryDx=0;entryDy=0;entryPerimeter=0;" edge="1" parent="1" source="-UbSz86vpk3sn-XPbI4o-141" target="-UbSz86vpk3sn-XPbI4o-143">
          <mxGeometry width="50" height="50" relative="1" as="geometry">
            <mxPoint x="567" y="549" as="sourcePoint" />
            <mxPoint x="607" y="549" as="targetPoint" />
          </mxGeometry>
        </mxCell>
        <mxCell id="-UbSz86vpk3sn-XPbI4o-148" value="" style="endArrow=classic;html=1;rounded=0;entryX=0;entryY=0.5;entryDx=0;entryDy=0;entryPerimeter=0;" edge="1" parent="1" target="-UbSz86vpk3sn-XPbI4o-143">
          <mxGeometry width="50" height="50" relative="1" as="geometry">
            <mxPoint x="679" y="539" as="sourcePoint" />
            <mxPoint x="607" y="549" as="targetPoint" />
          </mxGeometry>
        </mxCell>
        <mxCell id="-UbSz86vpk3sn-XPbI4o-149" value="" style="endArrow=classic;html=1;rounded=0;entryX=0.5;entryY=0;entryDx=0;entryDy=0;" edge="1" parent="1" target="-UbSz86vpk3sn-XPbI4o-142">
          <mxGeometry width="50" height="50" relative="1" as="geometry">
            <mxPoint x="717" y="550" as="sourcePoint" />
            <mxPoint x="727" y="539" as="targetPoint" />
          </mxGeometry>
        </mxCell>
        <mxCell id="-UbSz86vpk3sn-XPbI4o-150" value="" style="endArrow=classic;html=1;rounded=0;entryX=0;entryY=0.5;entryDx=0;entryDy=0;entryPerimeter=0;" edge="1" parent="1" target="-UbSz86vpk3sn-XPbI4o-130">
          <mxGeometry width="50" height="50" relative="1" as="geometry">
            <mxPoint x="679" y="700" as="sourcePoint" />
            <mxPoint x="727" y="580" as="targetPoint" />
          </mxGeometry>
        </mxCell>
        <mxCell id="-UbSz86vpk3sn-XPbI4o-151" value="" style="endArrow=classic;html=1;rounded=0;" edge="1" parent="1" target="-UbSz86vpk3sn-XPbI4o-144">
          <mxGeometry width="50" height="50" relative="1" as="geometry">
            <mxPoint x="718" y="610" as="sourcePoint" />
            <mxPoint x="727" y="580" as="targetPoint" />
          </mxGeometry>
        </mxCell>
        <mxCell id="-UbSz86vpk3sn-XPbI4o-152" value="" style="endArrow=classic;html=1;rounded=0;entryX=0.5;entryY=0;entryDx=0;entryDy=0;entryPerimeter=0;exitX=0;exitY=0.5;exitDx=0;exitDy=0;" edge="1" parent="1" source="-UbSz86vpk3sn-XPbI4o-144" target="-UbSz86vpk3sn-XPbI4o-130">
          <mxGeometry width="50" height="50" relative="1" as="geometry">
            <mxPoint x="739" y="680" as="sourcePoint" />
            <mxPoint x="728" y="640" as="targetPoint" />
          </mxGeometry>
        </mxCell>
        <mxCell id="-UbSz86vpk3sn-XPbI4o-182" value="" style="endArrow=classic;html=1;rounded=0;exitX=1;exitY=0.5;exitDx=0;exitDy=0;entryX=0;entryY=0.5;entryDx=0;entryDy=0;" edge="1" parent="1">
          <mxGeometry width="50" height="50" relative="1" as="geometry">
            <mxPoint x="878" y="459" as="sourcePoint" />
            <mxPoint x="918" y="459" as="targetPoint" />
          </mxGeometry>
        </mxCell>
        <mxCell id="-UbSz86vpk3sn-XPbI4o-183" value="" style="endArrow=classic;html=1;rounded=0;exitX=1;exitY=0.5;exitDx=0;exitDy=0;entryX=0;entryY=0.5;entryDx=0;entryDy=0;" edge="1" parent="1">
          <mxGeometry width="50" height="50" relative="1" as="geometry">
            <mxPoint x="878" y="539" as="sourcePoint" />
            <mxPoint x="918" y="539" as="targetPoint" />
          </mxGeometry>
        </mxCell>
        <mxCell id="-UbSz86vpk3sn-XPbI4o-184" value="" style="endArrow=classic;html=1;rounded=0;exitX=1;exitY=0.5;exitDx=0;exitDy=0;entryX=0;entryY=0.5;entryDx=0;entryDy=0;" edge="1" parent="1">
          <mxGeometry width="50" height="50" relative="1" as="geometry">
            <mxPoint x="878" y="699" as="sourcePoint" />
            <mxPoint x="918" y="699" as="targetPoint" />
          </mxGeometry>
        </mxCell>
        <mxCell id="-UbSz86vpk3sn-XPbI4o-185" value="" style="verticalLabelPosition=bottom;verticalAlign=top;html=1;shape=mxgraph.flowchart.summing_function;" vertex="1" parent="1">
          <mxGeometry x="1116" y="690" width="20" height="20" as="geometry" />
        </mxCell>
        <mxCell id="-UbSz86vpk3sn-XPbI4o-186" value="" style="endArrow=classic;html=1;rounded=0;exitX=1;exitY=0.5;exitDx=0;exitDy=0;exitPerimeter=0;entryX=0;entryY=0.5;entryDx=0;entryDy=0;" edge="1" parent="1" source="-UbSz86vpk3sn-XPbI4o-185" target="-UbSz86vpk3sn-XPbI4o-187">
          <mxGeometry width="50" height="50" relative="1" as="geometry">
            <mxPoint x="1136" y="699.5" as="sourcePoint" />
            <mxPoint x="1176" y="700" as="targetPoint" />
          </mxGeometry>
        </mxCell>
        <mxCell id="-UbSz86vpk3sn-XPbI4o-187" value="&lt;font style=&quot;font-size: 15px;&quot;&gt;$$\hat{x}[n]$$&lt;/font&gt;" style="text;html=1;align=center;verticalAlign=middle;whiteSpace=wrap;rounded=0;" vertex="1" parent="1">
          <mxGeometry x="1166" y="685" width="40" height="30" as="geometry" />
        </mxCell>
        <mxCell id="-UbSz86vpk3sn-XPbI4o-192" value="&lt;font style=&quot;font-size: 20px;&quot;&gt;$$\boldsymbol{R}(z)$$&lt;/font&gt;" style="rounded=0;whiteSpace=wrap;html=1;" vertex="1" parent="1">
          <mxGeometry x="920" y="439" width="80" height="281" as="geometry" />
        </mxCell>
        <mxCell id="-UbSz86vpk3sn-XPbI4o-193" value="&lt;font style=&quot;font-size: 15px;&quot;&gt;$$z^{-1}$$&lt;/font&gt;" style="rounded=0;whiteSpace=wrap;html=1;" vertex="1" parent="1">
          <mxGeometry x="1104.5" y="474" width="41" height="40" as="geometry" />
        </mxCell>
        <mxCell id="-UbSz86vpk3sn-XPbI4o-194" value="&lt;font style=&quot;font-size: 15px;&quot;&gt;$$z^{-1}$$&lt;/font&gt;" style="rounded=0;whiteSpace=wrap;html=1;" vertex="1" parent="1">
          <mxGeometry x="1104.5" y="570" width="41" height="40" as="geometry" />
        </mxCell>
        <mxCell id="-UbSz86vpk3sn-XPbI4o-195" value="" style="verticalLabelPosition=bottom;verticalAlign=top;html=1;shape=mxgraph.flowchart.summing_function;" vertex="1" parent="1">
          <mxGeometry x="1115" y="529" width="20" height="20" as="geometry" />
        </mxCell>
        <mxCell id="-UbSz86vpk3sn-XPbI4o-196" value="&lt;font style=&quot;font-size: 20px;&quot;&gt;$$\vdots$$&lt;/font&gt;" style="text;html=1;align=center;verticalAlign=middle;whiteSpace=wrap;rounded=0;direction=north;" vertex="1" parent="1">
          <mxGeometry x="1111" y="630" width="30" height="40" as="geometry" />
        </mxCell>
        <mxCell id="-UbSz86vpk3sn-XPbI4o-197" value="" style="edgeStyle=segmentEdgeStyle;endArrow=classic;html=1;curved=0;rounded=0;endSize=8;startSize=8;entryX=0.5;entryY=0;entryDx=0;entryDy=0;exitX=1;exitY=0.5;exitDx=0;exitDy=0;" edge="1" parent="1" source="-UbSz86vpk3sn-XPbI4o-216" target="-UbSz86vpk3sn-XPbI4o-193">
          <mxGeometry width="50" height="50" relative="1" as="geometry">
            <mxPoint x="1070" y="460" as="sourcePoint" />
            <mxPoint x="1140" y="438" as="targetPoint" />
            <Array as="points">
              <mxPoint x="1125" y="458" />
            </Array>
          </mxGeometry>
        </mxCell>
        <mxCell id="-UbSz86vpk3sn-XPbI4o-198" value="" style="endArrow=classic;html=1;rounded=0;exitX=0.5;exitY=1;exitDx=0;exitDy=0;entryX=0.5;entryY=0;entryDx=0;entryDy=0;entryPerimeter=0;" edge="1" parent="1" source="-UbSz86vpk3sn-XPbI4o-193" target="-UbSz86vpk3sn-XPbI4o-195">
          <mxGeometry width="50" height="50" relative="1" as="geometry">
            <mxPoint x="975" y="549" as="sourcePoint" />
            <mxPoint x="1015" y="549" as="targetPoint" />
          </mxGeometry>
        </mxCell>
        <mxCell id="-UbSz86vpk3sn-XPbI4o-199" value="" style="endArrow=classic;html=1;rounded=0;entryX=0;entryY=0.5;entryDx=0;entryDy=0;entryPerimeter=0;" edge="1" parent="1" target="-UbSz86vpk3sn-XPbI4o-195">
          <mxGeometry width="50" height="50" relative="1" as="geometry">
            <mxPoint x="1080" y="539" as="sourcePoint" />
            <mxPoint x="928" y="549" as="targetPoint" />
          </mxGeometry>
        </mxCell>
        <mxCell id="-UbSz86vpk3sn-XPbI4o-200" value="" style="endArrow=classic;html=1;rounded=0;entryX=0.5;entryY=0;entryDx=0;entryDy=0;" edge="1" parent="1" target="-UbSz86vpk3sn-XPbI4o-194">
          <mxGeometry width="50" height="50" relative="1" as="geometry">
            <mxPoint x="1125" y="550" as="sourcePoint" />
            <mxPoint x="1135" y="539" as="targetPoint" />
          </mxGeometry>
        </mxCell>
        <mxCell id="-UbSz86vpk3sn-XPbI4o-201" value="" style="endArrow=classic;html=1;rounded=0;entryX=0;entryY=0.5;entryDx=0;entryDy=0;entryPerimeter=0;" edge="1" parent="1" target="-UbSz86vpk3sn-XPbI4o-185">
          <mxGeometry width="50" height="50" relative="1" as="geometry">
            <mxPoint x="1080" y="700" as="sourcePoint" />
            <mxPoint x="1048" y="580" as="targetPoint" />
          </mxGeometry>
        </mxCell>
        <mxCell id="-UbSz86vpk3sn-XPbI4o-202" value="" style="endArrow=classic;html=1;rounded=0;" edge="1" parent="1" target="-UbSz86vpk3sn-XPbI4o-196">
          <mxGeometry width="50" height="50" relative="1" as="geometry">
            <mxPoint x="1126" y="610" as="sourcePoint" />
            <mxPoint x="1135" y="580" as="targetPoint" />
          </mxGeometry>
        </mxCell>
        <mxCell id="-UbSz86vpk3sn-XPbI4o-203" value="" style="endArrow=classic;html=1;rounded=0;entryX=0.5;entryY=0;entryDx=0;entryDy=0;entryPerimeter=0;exitX=0;exitY=0.5;exitDx=0;exitDy=0;" edge="1" parent="1" source="-UbSz86vpk3sn-XPbI4o-196" target="-UbSz86vpk3sn-XPbI4o-185">
          <mxGeometry width="50" height="50" relative="1" as="geometry">
            <mxPoint x="1147" y="680" as="sourcePoint" />
            <mxPoint x="1136" y="640" as="targetPoint" />
          </mxGeometry>
        </mxCell>
        <mxCell id="-UbSz86vpk3sn-XPbI4o-205" value="&lt;font style=&quot;font-size: 25px;&quot;&gt;$$\iff$$&lt;/font&gt;" style="text;html=1;align=center;verticalAlign=middle;whiteSpace=wrap;rounded=0;" vertex="1" parent="1">
          <mxGeometry x="414" y="203" width="60" height="30" as="geometry" />
        </mxCell>
        <mxCell id="-UbSz86vpk3sn-XPbI4o-206" value="&lt;font style=&quot;font-size: 25px;&quot;&gt;$$\iff$$&lt;/font&gt;" style="text;html=1;align=center;verticalAlign=middle;whiteSpace=wrap;rounded=0;" vertex="1" parent="1">
          <mxGeometry x="815" y="203" width="60" height="30" as="geometry" />
        </mxCell>
        <mxCell id="-UbSz86vpk3sn-XPbI4o-207" value="&lt;font style=&quot;font-size: 25px;&quot;&gt;$$\iff$$&lt;/font&gt;" style="text;html=1;align=center;verticalAlign=middle;whiteSpace=wrap;rounded=0;" vertex="1" parent="1">
          <mxGeometry x="411" y="563" width="60" height="30" as="geometry" />
        </mxCell>
        <mxCell id="-UbSz86vpk3sn-XPbI4o-208" value="&lt;font style=&quot;font-size: 25px;&quot;&gt;$$\iff$$&lt;/font&gt;" style="text;html=1;align=center;verticalAlign=middle;whiteSpace=wrap;rounded=0;" vertex="1" parent="1">
          <mxGeometry x="803" y="563" width="60" height="30" as="geometry" />
        </mxCell>
        <mxCell id="-UbSz86vpk3sn-XPbI4o-209" value="&lt;font style=&quot;font-size: 16px;&quot;&gt;$$\downarrow&lt;br&gt;M$$&lt;/font&gt;" style="rounded=0;whiteSpace=wrap;html=1;" vertex="1" parent="1">
          <mxGeometry x="999" y="77" width="40" height="40" as="geometry" />
        </mxCell>
        <mxCell id="-UbSz86vpk3sn-XPbI4o-210" value="&lt;font style=&quot;font-size: 16px;&quot;&gt;$$\downarrow&lt;br&gt;M$$&lt;/font&gt;" style="rounded=0;whiteSpace=wrap;html=1;" vertex="1" parent="1">
          <mxGeometry x="1000" y="156" width="40" height="40" as="geometry" />
        </mxCell>
        <mxCell id="-UbSz86vpk3sn-XPbI4o-211" value="&lt;font style=&quot;font-size: 16px;&quot;&gt;$$\downarrow&lt;br&gt;M$$&lt;/font&gt;" style="rounded=0;whiteSpace=wrap;html=1;" vertex="1" parent="1">
          <mxGeometry x="999" y="318" width="40" height="40" as="geometry" />
        </mxCell>
        <mxCell id="-UbSz86vpk3sn-XPbI4o-212" value="" style="endArrow=classic;html=1;rounded=0;exitX=1;exitY=0.5;exitDx=0;exitDy=0;" edge="1" parent="1" source="-UbSz86vpk3sn-XPbI4o-209">
          <mxGeometry width="50" height="50" relative="1" as="geometry">
            <mxPoint x="929" y="107" as="sourcePoint" />
            <mxPoint x="1080" y="97" as="targetPoint" />
          </mxGeometry>
        </mxCell>
        <mxCell id="-UbSz86vpk3sn-XPbI4o-213" value="" style="endArrow=classic;html=1;rounded=0;" edge="1" parent="1">
          <mxGeometry width="50" height="50" relative="1" as="geometry">
            <mxPoint x="1040" y="177" as="sourcePoint" />
            <mxPoint x="1080" y="177" as="targetPoint" />
          </mxGeometry>
        </mxCell>
        <mxCell id="-UbSz86vpk3sn-XPbI4o-214" value="" style="endArrow=classic;html=1;rounded=0;exitX=1;exitY=0.5;exitDx=0;exitDy=0;entryX=0.001;entryY=0.926;entryDx=0;entryDy=0;entryPerimeter=0;" edge="1" parent="1" source="-UbSz86vpk3sn-XPbI4o-211" target="-UbSz86vpk3sn-XPbI4o-119">
          <mxGeometry width="50" height="50" relative="1" as="geometry">
            <mxPoint x="1050" y="187" as="sourcePoint" />
            <mxPoint x="1090" y="187" as="targetPoint" />
          </mxGeometry>
        </mxCell>
        <mxCell id="-UbSz86vpk3sn-XPbI4o-217" value="" style="edgeStyle=segmentEdgeStyle;endArrow=classic;html=1;curved=0;rounded=0;endSize=8;startSize=8;entryX=0.5;entryY=0;entryDx=0;entryDy=0;" edge="1" parent="1" target="-UbSz86vpk3sn-XPbI4o-216">
          <mxGeometry width="50" height="50" relative="1" as="geometry">
            <mxPoint x="1070" y="460" as="sourcePoint" />
            <mxPoint x="1125" y="470" as="targetPoint" />
            <Array as="points" />
          </mxGeometry>
        </mxCell>
        <mxCell id="-UbSz86vpk3sn-XPbI4o-216" value="&lt;font style=&quot;font-size: 16px;&quot;&gt;$$\uparrow&lt;br&gt;M$$&lt;/font&gt;" style="rounded=0;whiteSpace=wrap;html=1;" vertex="1" parent="1">
          <mxGeometry x="1040" y="438" width="40" height="40" as="geometry" />
        </mxCell>
        <mxCell id="-UbSz86vpk3sn-XPbI4o-218" value="&lt;font style=&quot;font-size: 16px;&quot;&gt;$$\uparrow&lt;br&gt;M$$&lt;/font&gt;" style="rounded=0;whiteSpace=wrap;html=1;" vertex="1" parent="1">
          <mxGeometry x="1040" y="519" width="40" height="40" as="geometry" />
        </mxCell>
        <mxCell id="-UbSz86vpk3sn-XPbI4o-220" value="&lt;font style=&quot;font-size: 16px;&quot;&gt;$$\uparrow&lt;br&gt;M$$&lt;/font&gt;" style="rounded=0;whiteSpace=wrap;html=1;" vertex="1" parent="1">
          <mxGeometry x="1039" y="679" width="40" height="40" as="geometry" />
        </mxCell>
        <mxCell id="-UbSz86vpk3sn-XPbI4o-222" value="" style="endArrow=classic;html=1;rounded=0;entryX=0;entryY=0.5;entryDx=0;entryDy=0;" edge="1" parent="1" target="-UbSz86vpk3sn-XPbI4o-216">
          <mxGeometry width="50" height="50" relative="1" as="geometry">
            <mxPoint x="1000" y="458" as="sourcePoint" />
            <mxPoint x="775" y="454" as="targetPoint" />
          </mxGeometry>
        </mxCell>
        <mxCell id="-UbSz86vpk3sn-XPbI4o-223" value="" style="endArrow=classic;html=1;rounded=0;entryX=0;entryY=0.5;entryDx=0;entryDy=0;" edge="1" parent="1">
          <mxGeometry width="50" height="50" relative="1" as="geometry">
            <mxPoint x="1000" y="538" as="sourcePoint" />
            <mxPoint x="1039" y="538.47" as="targetPoint" />
          </mxGeometry>
        </mxCell>
        <mxCell id="-UbSz86vpk3sn-XPbI4o-224" value="" style="endArrow=classic;html=1;rounded=0;entryX=0;entryY=0.5;entryDx=0;entryDy=0;" edge="1" parent="1">
          <mxGeometry width="50" height="50" relative="1" as="geometry">
            <mxPoint x="1000" y="699" as="sourcePoint" />
            <mxPoint x="1039" y="699.47" as="targetPoint" />
          </mxGeometry>
        </mxCell>
        <mxCell id="-UbSz86vpk3sn-XPbI4o-226" value="" style="shape=waypoint;sketch=0;fillStyle=solid;size=6;pointerEvents=1;points=[];fillColor=none;resizable=0;rotatable=0;perimeter=centerPerimeter;snapToPoint=1;" vertex="1" parent="1">
          <mxGeometry x="149" y="810" width="20" height="20" as="geometry" />
        </mxCell>
        <mxCell id="-UbSz86vpk3sn-XPbI4o-227" value="" style="endArrow=classic;html=1;rounded=0;entryX=0;entryY=0.5;entryDx=0;entryDy=0;" edge="1" parent="1" source="-UbSz86vpk3sn-XPbI4o-233" target="-UbSz86vpk3sn-XPbI4o-243">
          <mxGeometry width="50" height="50" relative="1" as="geometry">
            <mxPoint x="89" y="820" as="sourcePoint" />
            <mxPoint x="200" y="820" as="targetPoint" />
          </mxGeometry>
        </mxCell>
        <mxCell id="-UbSz86vpk3sn-XPbI4o-228" value="" style="endArrow=classic;html=1;rounded=0;entryX=-0.029;entryY=0.07;entryDx=0;entryDy=0;entryPerimeter=0;" edge="1" parent="1" target="-UbSz86vpk3sn-XPbI4o-255">
          <mxGeometry width="50" height="50" relative="1" as="geometry">
            <mxPoint x="358" y="818" as="sourcePoint" />
            <mxPoint x="397" y="818" as="targetPoint" />
          </mxGeometry>
        </mxCell>
        <mxCell id="-UbSz86vpk3sn-XPbI4o-229" value="" style="endArrow=classic;html=1;rounded=0;exitX=1;exitY=0.5;exitDx=0;exitDy=0;entryX=-0.02;entryY=0.354;entryDx=0;entryDy=0;entryPerimeter=0;" edge="1" parent="1" target="-UbSz86vpk3sn-XPbI4o-255">
          <mxGeometry width="50" height="50" relative="1" as="geometry">
            <mxPoint x="357" y="898" as="sourcePoint" />
            <mxPoint x="397" y="898" as="targetPoint" />
          </mxGeometry>
        </mxCell>
        <mxCell id="-UbSz86vpk3sn-XPbI4o-230" value="" style="endArrow=classic;html=1;rounded=0;exitX=1;exitY=0.5;exitDx=0;exitDy=0;entryX=-0.055;entryY=0.924;entryDx=0;entryDy=0;entryPerimeter=0;" edge="1" parent="1" target="-UbSz86vpk3sn-XPbI4o-255">
          <mxGeometry width="50" height="50" relative="1" as="geometry">
            <mxPoint x="357" y="1058" as="sourcePoint" />
            <mxPoint x="397" y="1058" as="targetPoint" />
          </mxGeometry>
        </mxCell>
        <mxCell id="-UbSz86vpk3sn-XPbI4o-231" value="" style="shape=waypoint;sketch=0;fillStyle=solid;size=6;pointerEvents=1;points=[];fillColor=none;resizable=0;rotatable=0;perimeter=centerPerimeter;snapToPoint=1;" vertex="1" parent="1">
          <mxGeometry x="149" y="890" width="20" height="20" as="geometry" />
        </mxCell>
        <mxCell id="-UbSz86vpk3sn-XPbI4o-232" value="" style="endArrow=classic;html=1;rounded=0;exitX=0.633;exitY=0.867;exitDx=0;exitDy=0;exitPerimeter=0;entryX=0;entryY=0.5;entryDx=0;entryDy=0;" edge="1" parent="1" source="-UbSz86vpk3sn-XPbI4o-231">
          <mxGeometry width="50" height="50" relative="1" as="geometry">
            <mxPoint x="379" y="1030" as="sourcePoint" />
            <mxPoint x="199" y="900" as="targetPoint" />
          </mxGeometry>
        </mxCell>
        <mxCell id="-UbSz86vpk3sn-XPbI4o-233" value="&lt;font style=&quot;font-size: 15px;&quot;&gt;$$x[n]$$&lt;/font&gt;" style="text;html=1;align=center;verticalAlign=middle;whiteSpace=wrap;rounded=0;" vertex="1" parent="1">
          <mxGeometry x="78" y="804" width="40" height="30" as="geometry" />
        </mxCell>
        <mxCell id="-UbSz86vpk3sn-XPbI4o-234" value="&lt;font style=&quot;font-size: 20px;&quot;&gt;$$\vdots$$&lt;/font&gt;" style="text;html=1;align=center;verticalAlign=middle;whiteSpace=wrap;rounded=0;direction=north;" vertex="1" parent="1">
          <mxGeometry x="384" y="948" width="30" height="60" as="geometry" />
        </mxCell>
        <mxCell id="-UbSz86vpk3sn-XPbI4o-235" value="&lt;font style=&quot;font-size: 15px;&quot;&gt;$$z^{-1}$$&lt;/font&gt;" style="rounded=0;whiteSpace=wrap;html=1;" vertex="1" parent="1">
          <mxGeometry x="138.5" y="840" width="41" height="40" as="geometry" />
        </mxCell>
        <mxCell id="-UbSz86vpk3sn-XPbI4o-236" value="&lt;font style=&quot;font-size: 15px;&quot;&gt;$$z^{-1}$$&lt;/font&gt;" style="rounded=0;whiteSpace=wrap;html=1;" vertex="1" parent="1">
          <mxGeometry x="138.5" y="920" width="41" height="40" as="geometry" />
        </mxCell>
        <mxCell id="-UbSz86vpk3sn-XPbI4o-237" value="" style="endArrow=classic;html=1;rounded=0;exitX=0.65;exitY=0.8;exitDx=0;exitDy=0;exitPerimeter=0;entryX=0.5;entryY=0;entryDx=0;entryDy=0;" edge="1" parent="1" source="-UbSz86vpk3sn-XPbI4o-226" target="-UbSz86vpk3sn-XPbI4o-235">
          <mxGeometry width="50" height="50" relative="1" as="geometry">
            <mxPoint x="139.5" y="770" as="sourcePoint" />
            <mxPoint x="179.5" y="770" as="targetPoint" />
          </mxGeometry>
        </mxCell>
        <mxCell id="-UbSz86vpk3sn-XPbI4o-238" value="" style="endArrow=classic;html=1;rounded=0;exitX=0.5;exitY=1;exitDx=0;exitDy=0;entryX=0.5;entryY=0;entryDx=0;entryDy=0;" edge="1" parent="1" source="-UbSz86vpk3sn-XPbI4o-235" target="-UbSz86vpk3sn-XPbI4o-236">
          <mxGeometry width="50" height="50" relative="1" as="geometry">
            <mxPoint x="98.5" y="899.5" as="sourcePoint" />
            <mxPoint x="138.5" y="899.5" as="targetPoint" />
          </mxGeometry>
        </mxCell>
        <mxCell id="-UbSz86vpk3sn-XPbI4o-239" value="&lt;font style=&quot;font-size: 20px;&quot;&gt;$$\vdots$$&lt;/font&gt;" style="text;html=1;align=center;verticalAlign=middle;whiteSpace=wrap;rounded=0;direction=north;" vertex="1" parent="1">
          <mxGeometry x="144" y="990" width="30" height="40" as="geometry" />
        </mxCell>
        <mxCell id="-UbSz86vpk3sn-XPbI4o-240" value="" style="endArrow=classic;html=1;rounded=0;entryX=1;entryY=0.5;entryDx=0;entryDy=0;" edge="1" parent="1" target="-UbSz86vpk3sn-XPbI4o-239">
          <mxGeometry width="50" height="50" relative="1" as="geometry">
            <mxPoint x="159" y="960" as="sourcePoint" />
            <mxPoint x="209" y="910" as="targetPoint" />
          </mxGeometry>
        </mxCell>
        <mxCell id="-UbSz86vpk3sn-XPbI4o-241" value="" style="edgeStyle=segmentEdgeStyle;endArrow=classic;html=1;curved=0;rounded=0;endSize=8;startSize=8;exitX=0;exitY=0.5;exitDx=0;exitDy=0;entryX=0;entryY=0.5;entryDx=0;entryDy=0;" edge="1" parent="1" source="-UbSz86vpk3sn-XPbI4o-239">
          <mxGeometry width="50" height="50" relative="1" as="geometry">
            <mxPoint x="310" y="1010" as="sourcePoint" />
            <mxPoint x="199" y="1060" as="targetPoint" />
            <Array as="points">
              <mxPoint x="159" y="1060" />
            </Array>
          </mxGeometry>
        </mxCell>
        <mxCell id="-UbSz86vpk3sn-XPbI4o-242" value="&lt;font style=&quot;font-size: 20px;&quot;&gt;$$\boldsymbol{E}(z)$$&lt;/font&gt;" style="rounded=0;whiteSpace=wrap;html=1;" vertex="1" parent="1">
          <mxGeometry x="279" y="798" width="81" height="280" as="geometry" />
        </mxCell>
        <mxCell id="-UbSz86vpk3sn-XPbI4o-243" value="&lt;font style=&quot;font-size: 16px;&quot;&gt;$$\downarrow&lt;br&gt;M$$&lt;/font&gt;" style="rounded=0;whiteSpace=wrap;html=1;" vertex="1" parent="1">
          <mxGeometry x="198" y="799" width="40" height="40" as="geometry" />
        </mxCell>
        <mxCell id="-UbSz86vpk3sn-XPbI4o-244" value="&lt;font style=&quot;font-size: 16px;&quot;&gt;$$\downarrow&lt;br&gt;M$$&lt;/font&gt;" style="rounded=0;whiteSpace=wrap;html=1;" vertex="1" parent="1">
          <mxGeometry x="199" y="878" width="40" height="40" as="geometry" />
        </mxCell>
        <mxCell id="-UbSz86vpk3sn-XPbI4o-245" value="&lt;font style=&quot;font-size: 16px;&quot;&gt;$$\downarrow&lt;br&gt;M$$&lt;/font&gt;" style="rounded=0;whiteSpace=wrap;html=1;" vertex="1" parent="1">
          <mxGeometry x="199" y="1040" width="40" height="40" as="geometry" />
        </mxCell>
        <mxCell id="-UbSz86vpk3sn-XPbI4o-246" value="" style="endArrow=classic;html=1;rounded=0;exitX=1;exitY=0.5;exitDx=0;exitDy=0;" edge="1" parent="1" source="-UbSz86vpk3sn-XPbI4o-243">
          <mxGeometry width="50" height="50" relative="1" as="geometry">
            <mxPoint x="127" y="827" as="sourcePoint" />
            <mxPoint x="280" y="819" as="targetPoint" />
          </mxGeometry>
        </mxCell>
        <mxCell id="-UbSz86vpk3sn-XPbI4o-247" value="" style="endArrow=classic;html=1;rounded=0;exitX=1;exitY=0.5;exitDx=0;exitDy=0;" edge="1" parent="1" source="-UbSz86vpk3sn-XPbI4o-244">
          <mxGeometry width="50" height="50" relative="1" as="geometry">
            <mxPoint x="238" y="897" as="sourcePoint" />
            <mxPoint x="280" y="898" as="targetPoint" />
          </mxGeometry>
        </mxCell>
        <mxCell id="-UbSz86vpk3sn-XPbI4o-248" value="" style="endArrow=classic;html=1;rounded=0;exitX=1;exitY=0.5;exitDx=0;exitDy=0;" edge="1" parent="1" source="-UbSz86vpk3sn-XPbI4o-245">
          <mxGeometry width="50" height="50" relative="1" as="geometry">
            <mxPoint x="248" y="907" as="sourcePoint" />
            <mxPoint x="280" y="1060" as="targetPoint" />
          </mxGeometry>
        </mxCell>
        <mxCell id="-UbSz86vpk3sn-XPbI4o-252" value="" style="verticalLabelPosition=bottom;verticalAlign=top;html=1;shape=mxgraph.flowchart.summing_function;" vertex="1" parent="1">
          <mxGeometry x="636" y="1050" width="20" height="20" as="geometry" />
        </mxCell>
        <mxCell id="-UbSz86vpk3sn-XPbI4o-253" value="" style="endArrow=classic;html=1;rounded=0;exitX=1;exitY=0.5;exitDx=0;exitDy=0;exitPerimeter=0;entryX=0;entryY=0.5;entryDx=0;entryDy=0;" edge="1" parent="1" source="-UbSz86vpk3sn-XPbI4o-252" target="-UbSz86vpk3sn-XPbI4o-254">
          <mxGeometry width="50" height="50" relative="1" as="geometry">
            <mxPoint x="656" y="1059.5" as="sourcePoint" />
            <mxPoint x="696" y="1060" as="targetPoint" />
          </mxGeometry>
        </mxCell>
        <mxCell id="-UbSz86vpk3sn-XPbI4o-254" value="&lt;font style=&quot;font-size: 15px;&quot;&gt;$$\hat{x}[n]$$&lt;/font&gt;" style="text;html=1;align=center;verticalAlign=middle;whiteSpace=wrap;rounded=0;" vertex="1" parent="1">
          <mxGeometry x="686" y="1045" width="40" height="30" as="geometry" />
        </mxCell>
        <mxCell id="-UbSz86vpk3sn-XPbI4o-255" value="&lt;font style=&quot;font-size: 20px;&quot;&gt;$$\boldsymbol{R}(z)$$&lt;/font&gt;" style="rounded=0;whiteSpace=wrap;html=1;" vertex="1" parent="1">
          <mxGeometry x="440" y="799" width="80" height="281" as="geometry" />
        </mxCell>
        <mxCell id="-UbSz86vpk3sn-XPbI4o-256" value="&lt;font style=&quot;font-size: 15px;&quot;&gt;$$z^{-1}$$&lt;/font&gt;" style="rounded=0;whiteSpace=wrap;html=1;" vertex="1" parent="1">
          <mxGeometry x="624.5" y="834" width="41" height="40" as="geometry" />
        </mxCell>
        <mxCell id="-UbSz86vpk3sn-XPbI4o-257" value="&lt;font style=&quot;font-size: 15px;&quot;&gt;$$z^{-1}$$&lt;/font&gt;" style="rounded=0;whiteSpace=wrap;html=1;" vertex="1" parent="1">
          <mxGeometry x="624.5" y="930" width="41" height="40" as="geometry" />
        </mxCell>
        <mxCell id="-UbSz86vpk3sn-XPbI4o-258" value="" style="verticalLabelPosition=bottom;verticalAlign=top;html=1;shape=mxgraph.flowchart.summing_function;" vertex="1" parent="1">
          <mxGeometry x="635" y="889" width="20" height="20" as="geometry" />
        </mxCell>
        <mxCell id="-UbSz86vpk3sn-XPbI4o-259" value="&lt;font style=&quot;font-size: 20px;&quot;&gt;$$\vdots$$&lt;/font&gt;" style="text;html=1;align=center;verticalAlign=middle;whiteSpace=wrap;rounded=0;direction=north;" vertex="1" parent="1">
          <mxGeometry x="631" y="990" width="30" height="40" as="geometry" />
        </mxCell>
        <mxCell id="-UbSz86vpk3sn-XPbI4o-260" value="" style="edgeStyle=segmentEdgeStyle;endArrow=classic;html=1;curved=0;rounded=0;endSize=8;startSize=8;entryX=0.5;entryY=0;entryDx=0;entryDy=0;exitX=1;exitY=0.5;exitDx=0;exitDy=0;" edge="1" parent="1" source="-UbSz86vpk3sn-XPbI4o-268" target="-UbSz86vpk3sn-XPbI4o-256">
          <mxGeometry width="50" height="50" relative="1" as="geometry">
            <mxPoint x="590" y="820" as="sourcePoint" />
            <mxPoint x="660" y="798" as="targetPoint" />
            <Array as="points">
              <mxPoint x="645" y="818" />
            </Array>
          </mxGeometry>
        </mxCell>
        <mxCell id="-UbSz86vpk3sn-XPbI4o-261" value="" style="endArrow=classic;html=1;rounded=0;exitX=0.5;exitY=1;exitDx=0;exitDy=0;entryX=0.5;entryY=0;entryDx=0;entryDy=0;entryPerimeter=0;" edge="1" parent="1" source="-UbSz86vpk3sn-XPbI4o-256" target="-UbSz86vpk3sn-XPbI4o-258">
          <mxGeometry width="50" height="50" relative="1" as="geometry">
            <mxPoint x="495" y="909" as="sourcePoint" />
            <mxPoint x="535" y="909" as="targetPoint" />
          </mxGeometry>
        </mxCell>
        <mxCell id="-UbSz86vpk3sn-XPbI4o-262" value="" style="endArrow=classic;html=1;rounded=0;entryX=0;entryY=0.5;entryDx=0;entryDy=0;entryPerimeter=0;" edge="1" parent="1" target="-UbSz86vpk3sn-XPbI4o-258">
          <mxGeometry width="50" height="50" relative="1" as="geometry">
            <mxPoint x="600" y="899" as="sourcePoint" />
            <mxPoint x="448" y="909" as="targetPoint" />
          </mxGeometry>
        </mxCell>
        <mxCell id="-UbSz86vpk3sn-XPbI4o-263" value="" style="endArrow=classic;html=1;rounded=0;entryX=0.5;entryY=0;entryDx=0;entryDy=0;" edge="1" parent="1" target="-UbSz86vpk3sn-XPbI4o-257">
          <mxGeometry width="50" height="50" relative="1" as="geometry">
            <mxPoint x="645" y="910" as="sourcePoint" />
            <mxPoint x="655" y="899" as="targetPoint" />
          </mxGeometry>
        </mxCell>
        <mxCell id="-UbSz86vpk3sn-XPbI4o-264" value="" style="endArrow=classic;html=1;rounded=0;entryX=0;entryY=0.5;entryDx=0;entryDy=0;entryPerimeter=0;" edge="1" parent="1" target="-UbSz86vpk3sn-XPbI4o-252">
          <mxGeometry width="50" height="50" relative="1" as="geometry">
            <mxPoint x="600" y="1060" as="sourcePoint" />
            <mxPoint x="568" y="940" as="targetPoint" />
          </mxGeometry>
        </mxCell>
        <mxCell id="-UbSz86vpk3sn-XPbI4o-265" value="" style="endArrow=classic;html=1;rounded=0;" edge="1" parent="1" target="-UbSz86vpk3sn-XPbI4o-259">
          <mxGeometry width="50" height="50" relative="1" as="geometry">
            <mxPoint x="646" y="970" as="sourcePoint" />
            <mxPoint x="655" y="940" as="targetPoint" />
          </mxGeometry>
        </mxCell>
        <mxCell id="-UbSz86vpk3sn-XPbI4o-266" value="" style="endArrow=classic;html=1;rounded=0;entryX=0.5;entryY=0;entryDx=0;entryDy=0;entryPerimeter=0;exitX=0;exitY=0.5;exitDx=0;exitDy=0;" edge="1" parent="1" source="-UbSz86vpk3sn-XPbI4o-259" target="-UbSz86vpk3sn-XPbI4o-252">
          <mxGeometry width="50" height="50" relative="1" as="geometry">
            <mxPoint x="667" y="1040" as="sourcePoint" />
            <mxPoint x="656" y="1000" as="targetPoint" />
          </mxGeometry>
        </mxCell>
        <mxCell id="-UbSz86vpk3sn-XPbI4o-267" value="" style="edgeStyle=segmentEdgeStyle;endArrow=classic;html=1;curved=0;rounded=0;endSize=8;startSize=8;entryX=0.5;entryY=0;entryDx=0;entryDy=0;" edge="1" parent="1" target="-UbSz86vpk3sn-XPbI4o-268">
          <mxGeometry width="50" height="50" relative="1" as="geometry">
            <mxPoint x="590" y="820" as="sourcePoint" />
            <mxPoint x="645" y="830" as="targetPoint" />
            <Array as="points" />
          </mxGeometry>
        </mxCell>
        <mxCell id="-UbSz86vpk3sn-XPbI4o-268" value="&lt;font style=&quot;font-size: 16px;&quot;&gt;$$\uparrow&lt;br&gt;M$$&lt;/font&gt;" style="rounded=0;whiteSpace=wrap;html=1;" vertex="1" parent="1">
          <mxGeometry x="560" y="798" width="40" height="40" as="geometry" />
        </mxCell>
        <mxCell id="-UbSz86vpk3sn-XPbI4o-269" value="&lt;font style=&quot;font-size: 16px;&quot;&gt;$$\uparrow&lt;br&gt;M$$&lt;/font&gt;" style="rounded=0;whiteSpace=wrap;html=1;" vertex="1" parent="1">
          <mxGeometry x="560" y="879" width="40" height="40" as="geometry" />
        </mxCell>
        <mxCell id="-UbSz86vpk3sn-XPbI4o-270" value="&lt;font style=&quot;font-size: 16px;&quot;&gt;$$\uparrow&lt;br&gt;M$$&lt;/font&gt;" style="rounded=0;whiteSpace=wrap;html=1;" vertex="1" parent="1">
          <mxGeometry x="559" y="1039" width="40" height="40" as="geometry" />
        </mxCell>
        <mxCell id="-UbSz86vpk3sn-XPbI4o-271" value="" style="endArrow=classic;html=1;rounded=0;entryX=0;entryY=0.5;entryDx=0;entryDy=0;" edge="1" parent="1" target="-UbSz86vpk3sn-XPbI4o-268">
          <mxGeometry width="50" height="50" relative="1" as="geometry">
            <mxPoint x="520" y="818" as="sourcePoint" />
            <mxPoint x="295" y="814" as="targetPoint" />
          </mxGeometry>
        </mxCell>
        <mxCell id="-UbSz86vpk3sn-XPbI4o-272" value="" style="endArrow=classic;html=1;rounded=0;entryX=0;entryY=0.5;entryDx=0;entryDy=0;" edge="1" parent="1">
          <mxGeometry width="50" height="50" relative="1" as="geometry">
            <mxPoint x="520" y="898" as="sourcePoint" />
            <mxPoint x="559" y="898.47" as="targetPoint" />
          </mxGeometry>
        </mxCell>
        <mxCell id="-UbSz86vpk3sn-XPbI4o-273" value="" style="endArrow=classic;html=1;rounded=0;entryX=0;entryY=0.5;entryDx=0;entryDy=0;" edge="1" parent="1">
          <mxGeometry width="50" height="50" relative="1" as="geometry">
            <mxPoint x="520" y="1059" as="sourcePoint" />
            <mxPoint x="559" y="1059.47" as="targetPoint" />
          </mxGeometry>
        </mxCell>
      </root>
    </mxGraphModel>
  </diagram>
</mxfile>
